# Blender v2.90.0 Beta OBJ File: ''
# www.blender.org
mtllib Arrow.mtl
o Cube
v 0.021922 0.000000 0.082435
v 0.010961 0.010961 0.082435
v 0.000000 0.000000 0.113462
v -0.010961 -0.010961 0.082435
v 0.000000 -0.021922 0.082435
v 0.010961 -0.010961 0.082435
v 0.000000 0.000000 -0.034879
v -0.004777 0.004777 -0.034879
v 0.000000 0.009555 -0.040904
v 0.004777 0.004777 -0.034879
v 0.004777 -0.004777 -0.034879
v 0.009555 0.000000 -0.040904
v 0.000000 -0.009555 -0.040904
v -0.004777 -0.004777 -0.034879
v 0.000000 0.021922 0.082435
v -0.010961 0.010961 0.082435
v -0.009555 0.000000 -0.040904
v -0.021922 0.000000 0.082435
v 0.000000 -0.031421 0.052100
v 0.015710 -0.015710 0.062766
v 0.004429 -0.004429 0.062732
v 0.000000 -0.008859 0.062732
v -0.004430 -0.004429 0.062732
v -0.015710 -0.015710 0.062766
v 0.004429 0.004429 0.062732
v 0.000000 0.008859 0.062732
v 0.000000 0.031421 0.052100
v 0.015710 0.015710 0.062766
v -0.004430 0.004429 0.062732
v -0.008859 0.000000 0.062732
v -0.031421 0.000000 0.052100
v -0.015710 0.015710 0.062766
v 0.031421 0.000000 0.052100
v 0.008859 0.000000 0.062732
vt 0.577505 0.547495
vt 0.577505 0.625000
vt 0.500000 0.625000
vt 0.422495 0.625000
vt 0.422495 0.547495
vt 0.500000 0.547495
vt 0.500000 0.625000
vt 0.500000 0.933669
vt 0.625000 0.856269
vt 0.808669 0.625000
vt 0.500000 0.316331
vt 0.731269 0.500000
vt 0.268731 0.500000
vt 0.191331 0.625000
vt 0.577505 0.702505
vt 0.500000 0.702505
vt 0.268731 0.750000
vt 0.422495 0.702505
vt 0.388911 0.500000
vt 0.500000 0.500000
vt 0.500000 0.500000
vt 0.388911 0.500000
vt 0.375000 0.393731
vt 0.375000 0.625000
vt 0.375000 0.513911
vt 0.375000 0.513911
vt 0.375000 0.625000
vt 0.625000 0.625000
vt 0.625000 0.736089
vt 0.625000 0.736089
vt 0.625000 0.625000
vt 0.500000 0.750000
vt 0.388911 0.750000
vt 0.388911 0.750000
vt 0.500000 0.750000
vt 0.611089 0.500000
vt 0.611089 0.500000
vt 0.625000 0.393731
vt 0.625000 0.513911
vt 0.625000 0.513911
vt 0.375000 0.736089
vt 0.375000 0.736089
vt 0.611089 0.750000
vt 0.611089 0.750000
vt 0.375000 0.856269
vt 0.731269 0.750000
vn 0.6969 0.6314 0.3400
vn 0.6598 0.6598 0.3597
vn 0.6326 0.6326 0.4469
vn -0.6326 -0.6326 0.4469
vn -0.6598 -0.6598 0.3597
vn -0.6314 -0.6969 0.3400
vn 0.6598 -0.6598 0.3597
vn 0.6969 -0.6314 0.3400
vn 0.6326 -0.6326 0.4469
vn 0.0000 -0.5334 -0.8459
vn 0.6314 -0.6969 0.3400
vn -0.5334 0.0000 -0.8459
vn 0.0000 0.5334 -0.8459
vn -0.6314 0.6969 0.3400
vn -0.6598 0.6598 0.3597
vn -0.6326 0.6326 0.4469
vn 0.5334 0.0000 -0.8459
vn 0.6314 0.6969 0.3400
vn -0.6969 -0.6314 0.3400
vn 0.6255 -0.7327 0.2682
vn 0.6811 -0.6811 0.2690
vn 0.7071 -0.7071 0.0049
vn 0.7056 -0.7086 0.0049
vn -0.1506 0.3408 -0.9280
vn 0.0000 0.3447 -0.9387
vn -0.6811 -0.6811 0.2690
vn -0.6255 -0.7327 0.2682
vn 0.1506 -0.3408 -0.9280
vn 0.0000 -0.3447 -0.9387
vn 0.6811 0.6811 0.2690
vn 0.6255 0.7327 0.2682
vn 0.3408 0.1506 -0.9280
vn 0.3448 0.0000 -0.9387
vn -0.6811 0.6811 0.2690
vn -0.7327 0.6255 0.2682
vn -0.6969 0.6314 0.3400
vn 0.7327 -0.6255 0.2682
vn 0.7086 -0.7056 0.0049
vn -0.3447 0.0000 -0.9387
vn -0.3408 0.1506 -0.9280
vn 0.7327 0.6255 0.2682
vn 0.3408 -0.1506 -0.9280
vn -0.7327 -0.6255 0.2682
vn -0.1506 -0.3408 -0.9280
vn -0.6255 0.7327 0.2682
vn -0.7055 0.7087 0.0049
vn -0.7071 0.7071 0.0049
vn -0.7087 -0.7055 0.0049
vn -0.7071 -0.7071 0.0049
vn 0.7086 0.7056 0.0049
vn 0.7071 0.7071 0.0049
vn -0.3408 -0.1506 -0.9280
vn -0.7087 0.7055 0.0049
vn 0.7056 0.7086 0.0049
vn -0.7055 -0.7087 0.0049
vn 0.1506 0.3408 -0.9280
usemtl Material
s 1
f 1/1/1 2/2/2 3/3/3
f 3/3/4 4/4/5 5/5/6
f 6/6/7 1/1/8 3/3/9
f 7/7/10 8/8/10 9/9/10 10/10/10
f 5/5/11 6/6/7 3/3/9
f 11/11/12 7/7/12 10/10/12 12/12/12
f 13/13/13 14/14/13 7/7/13 11/11/13
f 15/15/14 16/16/15 3/3/16
f 14/14/17 17/17/17 8/8/17 7/7/17
f 3/3/3 2/2/2 15/15/18
f 18/18/19 4/4/5 3/3/4
f 6/6/7 5/5/11 19/19/20 20/20/21
f 21/21/22 22/22/23 13/23/23 11/11/22
f 23/24/24 22/25/25 19/26/25 24/27/24
f 24/27/26 19/26/27 5/5/6 4/4/5
f 25/28/28 26/29/29 27/30/29 28/31/28
f 28/31/30 27/30/31 15/15/18 2/2/2
f 29/32/32 30/33/33 31/34/33 32/35/32
f 32/35/34 31/34/35 18/18/36 16/16/15
f 1/1/8 6/6/7 20/20/21 33/36/37
f 34/37/38 21/21/22 11/11/22 12/38/38
f 34/39/39 25/28/40 28/31/40 33/40/39
f 33/40/41 28/31/30 2/2/2 1/1/1
f 30/41/33 23/24/42 24/27/42 31/42/33
f 31/42/43 24/27/26 4/4/5 18/18/19
f 26/43/29 29/32/44 32/35/44 27/44/29
f 27/44/45 32/35/34 16/16/15 15/15/14
f 3/3/16 16/16/15 18/18/36
f 9/9/46 8/8/47 29/32/47 26/43/46
f 17/17/48 14/14/49 23/24/49 30/41/48
f 12/12/50 10/10/51 25/28/51 34/39/50
f 33/36/39 20/20/52 21/21/52 34/37/39
f 8/8/47 17/45/53 30/33/53 29/32/47
f 10/10/51 9/46/54 26/29/54 25/28/51
f 14/14/49 13/13/55 22/25/55 23/24/49
f 20/20/56 19/19/25 22/22/25 21/21/56
